<svg id="Layer_1" enable-background="new 0 0 512.002 512.002" height="512" viewBox="0 0 512.002 512.002" width="512" xmlns="http://www.w3.org/2000/svg"><g><g><path d="m115.453 400.149c-3.905 3.905-3.905 10.237 0 14.143 3.905 3.904 10.237 3.904 14.142 0 8.121-8.122 18.919-12.595 30.405-12.595 11.485 0 22.284 4.473 30.406 12.595 1.953 1.952 4.512 2.929 7.071 2.929s5.119-.977 7.071-2.929c3.905-3.905 3.905-10.237 0-14.143-11.899-11.899-27.72-18.452-44.547-18.452-16.829 0-32.649 6.553-44.548 18.452z"/><path d="m76.391 349.946c3.534.947 7.121 1.416 10.685 1.416 7.108 0 14.125-1.864 20.446-5.515 9.491-5.479 16.279-14.326 19.116-24.911 1.43-5.334-1.736-10.817-7.071-12.247-5.337-1.43-10.818 1.736-12.248 7.07-1.454 5.425-4.933 9.959-9.797 12.768-4.864 2.808-10.529 3.556-15.954 2.101-5.333-1.434-10.818 1.736-12.248 7.07-1.429 5.335 1.736 10.819 7.071 12.248z"/><path d="m212.477 345.848c6.322 3.65 13.337 5.515 20.447 5.515 3.563 0 7.151-.469 10.685-1.416 5.334-1.43 8.5-6.913 7.071-12.247-1.43-5.336-6.914-8.505-12.248-7.071-5.424 1.453-11.091.707-15.955-2.101-4.864-2.809-8.343-7.343-9.797-12.768-1.43-5.334-6.912-8.501-12.248-7.07-5.334 1.43-8.5 6.913-7.071 12.247 2.837 10.584 9.626 19.431 19.116 24.911z"/><path d="m352.002 0c-88.224 0-160 71.775-160 160 0 12.203 1.387 24.295 4.129 36.116-11.615-2.691-23.71-4.114-36.131-4.114-25.926 0-51.69 6.357-74.507 18.386-4.886 2.575-6.759 8.623-4.183 13.509s8.623 6.758 13.509 4.183c19.953-10.518 42.492-16.077 65.181-16.077 77.196 0 140 62.804 140 140s-62.804 140-140 140-140-62.804-140-140c0-22.691 5.558-45.228 16.074-65.173 2.576-4.886.703-10.935-4.183-13.51-4.886-2.574-10.934-.704-13.51 4.182-12.025 22.81-18.381 48.571-18.381 74.5 0 88.225 71.776 160 160 160s160-71.775 160-160c0-12.421-1.423-24.516-4.114-36.13 11.821 2.741 23.913 4.128 36.116 4.128 88.224 0 160-71.775 160-160s-71.776-160-160-160zm0 300c-14.712 0-29.239-2.305-43.214-6.842-16.26-40.97-48.974-73.684-89.944-89.944-4.537-13.976-6.842-28.502-6.842-43.214 0-77.196 62.804-140 140-140s140 62.804 140 140-62.804 140-140 140z"/><path d="m382.407 192.625c-8.121 8.121-18.919 12.594-30.405 12.594s-22.284-4.473-30.404-12.594c-3.905-3.905-10.236-3.905-14.143-.001-3.905 3.904-3.906 10.236-.001 14.142 11.898 11.899 27.719 18.453 44.548 18.453s32.65-6.554 44.548-18.453c3.905-3.905 3.905-10.236 0-14.142-3.906-3.906-10.238-3.905-14.143.001z"/><path d="m314.191 155.794c2.559 0 5.119-.977 7.071-2.929 3.905-3.906 3.905-10.237 0-14.143-7.75-7.749-18.052-12.017-29.01-12.017s-21.261 4.268-29.01 12.017c-3.905 3.905-3.905 10.237 0 14.143 3.905 3.904 10.237 3.904 14.143 0 3.972-3.972 9.251-6.159 14.868-6.159 5.616 0 10.896 2.188 14.868 6.159 1.952 1.953 4.511 2.929 7.07 2.929z"/><path d="m411.751 126.706c-10.958 0-21.26 4.268-29.01 12.017-3.905 3.905-3.906 10.236 0 14.143 3.905 3.904 10.237 3.905 14.142 0 3.972-3.972 9.252-6.159 14.868-6.159s10.896 2.188 14.867 6.159c1.953 1.952 4.512 2.929 7.071 2.929s5.119-.977 7.071-2.929c3.905-3.905 3.905-10.237 0-14.143-7.749-7.749-18.051-12.017-29.009-12.017z"/><path d="m53.931 255.938c2.56 0 5.121-.977 7.074-2.93 3.905-3.905 3.905-10.237 0-14.143-3.905-3.904-10.236-3.904-14.142 0l-.005.005c-3.905 3.905-3.903 10.234.002 14.14 1.953 1.952 4.511 2.928 7.071 2.928z"/></g></g></svg>