<?xml version="1.0" ?><svg data-name="Layer 1" id="Layer_1" viewBox="0 0 128 128" xmlns="http://www.w3.org/2000/svg"><title/><path d="M91.94,58.65a8.79,8.79,0,0,0-7.6,4.54,8.79,8.79,0,0,0-7.6-4.54,9.15,9.15,0,0,0-8.87,9.4s0,.51,0,.75l0,.29c.7,7.66,15.26,16.76,15.88,17.14a1,1,0,0,0,.53.15,1,1,0,0,0,.53-.15c.62-.38,15.18-9.48,15.87-17.12,0-.08,0-.38,0-.54s0-.53,0-.54A9.13,9.13,0,0,0,91.94,58.65Zm6.85,9.81c0,.13,0,.37,0,.45-.48,5.31-10.1,12.53-14.41,15.29-4.31-2.76-13.93-10-14.42-15.31l0-.25c0-.18,0-.56,0-.61a7.15,7.15,0,0,1,6.87-7.38,7,7,0,0,1,6.63,5.45,1,1,0,0,0,1.94,0,7,7,0,0,1,6.63-5.45A7.13,7.13,0,0,1,98.8,68C98.8,68.07,98.79,68.33,98.79,68.46Z"/><path d="M32.31,46.59A2.74,2.74,0,1,0,35,49.33,2.74,2.74,0,0,0,32.31,46.59Zm0,3.47a.74.74,0,0,1,0-1.47.74.74,0,0,1,0,1.47Z"/><path d="M43.66,46.59a2.74,2.74,0,1,0,2.74,2.74A2.74,2.74,0,0,0,43.66,46.59Zm0,3.47a.74.74,0,1,1,.74-.73A.73.73,0,0,1,43.66,50.06Z"/><path d="M55,52.06a2.74,2.74,0,1,0-2.73-2.73A2.74,2.74,0,0,0,55,52.06Zm0-3.47a.74.74,0,1,1-.73.74A.74.74,0,0,1,55,48.59Z"/><path d="M92.55,47.86a1,1,0,1,0-.45,2,29.56,29.56,0,0,1,13.24,6.69,1,1,0,0,0,1.41-.07,1,1,0,0,0-.07-1.41A31.47,31.47,0,0,0,92.55,47.86Z"/><path d="M109.43,61.36a22.61,22.61,0,0,1,1.28,2.43,1,1,0,0,0,.91.6,1,1,0,0,0,.41-.08,1,1,0,0,0,.51-1.32,22.12,22.12,0,0,0-1.41-2.68,1,1,0,1,0-1.7,1Z"/><path d="M84.34,42a42.38,42.38,0,0,0-6.33.47C74.48,29.57,60.22,20.28,43.66,20.28,24.26,20.28,8.48,33,8.48,48.62c0,7.64,3.7,14.77,10.42,20.13V85a1,1,0,0,0,.52.88,1,1,0,0,0,.48.12,1,1,0,0,0,.54-.16l14.85-9.64a44.2,44.2,0,0,0,14.7.33c3.48,12.7,17.56,22.23,34.35,22.23a44,44,0,0,0,8.37-.8l14.85,9.64a1,1,0,0,0,.54.16,1,1,0,0,0,.48-.12,1,1,0,0,0,.52-.88V90.51c6.72-5.36,10.42-12.49,10.42-20.13C119.52,54.75,103.74,42,84.34,42ZM35.29,74.12a1,1,0,0,0-.74.14L20.9,83.12V68.27a1,1,0,0,0-.39-.79c-6.47-5-10-11.71-10-18.86,0-14.52,14.88-26.34,33.18-26.34,15.59,0,29,8.59,32.37,20.56-15.4,3-26.87,14.22-26.87,27.54a23,23,0,0,0,.38,4.16A42,42,0,0,1,35.29,74.12Zm72.2,15.11a1,1,0,0,0-.39.79v14.86L93.45,96a1,1,0,0,0-.54-.16.65.65,0,0,0-.2,0,41.62,41.62,0,0,1-8.37.84C66,96.72,51.16,84.9,51.16,70.38S66,44,84.34,44s33.18,11.81,33.18,26.34C117.52,77.53,114,84.23,107.49,89.23Z"/><path d="M22.88,32.62a23.7,23.7,0,0,0-7.15,9.32,1,1,0,0,0,.55,1.3,1,1,0,0,0,.38.08,1,1,0,0,0,.93-.62,21.62,21.62,0,0,1,6.54-8.53,1,1,0,1,0-1.25-1.55Z"/><path d="M37.21,26.27a33.69,33.69,0,0,0-4.27,1.05,1,1,0,0,0,.3,1.95.79.79,0,0,0,.3-.05,33.67,33.67,0,0,1,4-1,1,1,0,0,0-.35-2Z"/></svg>