<svg id="Pouting_Face" height="512" viewBox="0 0 512 512" width="512" xmlns="http://www.w3.org/2000/svg" data-name="Pouting Face"><g id="Outline" fill="rgb(0,0,0)"><path d="m488.46 148.64a8 8 0 0 0 -14.771.6 7.936 7.936 0 0 0 .141 5.869l-.011-.009.12.259a240.044 240.044 0 0 1 -217.939 340.641 240.148 240.148 0 0 1 -221.86-331.71 8 8 0 1 0 -14.781-6.12 255.123 255.123 0 0 0 -14.359 47.23 258.531 258.531 0 0 0 .2 102.19 254.656 254.656 0 0 0 38.52 91.54 255.793 255.793 0 0 0 355.41 69.149 256.426 256.426 0 0 0 106.77-268.079 254.965 254.965 0 0 0 -17.44-51.56z"/><path d="m36.88 139.47a8.005 8.005 0 1 0 -2.851-11.08v-.01l-.1.16a8.019 8.019 0 0 0 2.951 10.93z"/><path d="m53.72 112.26a7.99 7.99 0 0 0 11.12-1.4l.09-.119c45.86-60.212 115.5-94.741 191.07-94.741a237.929 237.929 0 0 1 100.64 22.06 7.94 7.94 0 0 0 3.35.74 8.029 8.029 0 0 0 7.27-4.64 8 8 0 0 0 -3.9-10.62 254.35 254.35 0 0 0 -51.55-17.431 257.461 257.461 0 0 0 -55.79-6.109h-.03a256.03 256.03 0 0 0 -203.79 101.05 8.008 8.008 0 0 0 1.52 11.21z"/><path d="m207.845 206.431c-9.181-45.904-92.311-46.431-95.845-46.431a8 8 0 0 0 0 16c15.191.016 49.06 3.38 67.7 16.4a24.007 24.007 0 1 0 27.755 18.5 7.957 7.957 0 0 0 .39-4.469zm-23.845 17.569a8 8 0 1 1 8-8 8.009 8.009 0 0 1 -8 8z"/><path d="m408 168a8 8 0 0 0 -8-8c-3.534 0-86.664.527-95.845 46.431a7.957 7.957 0 0 0 .4 4.469 24 24 0 1 0 27.755-18.5c18.638-13.015 52.507-16.379 67.7-16.4a8 8 0 0 0 7.99-8zm-72 48a8 8 0 1 1 -8-8 8.009 8.009 0 0 1 8 8z"/><path d="m133.7 359.663a8 8 0 0 0 9.962-5.364c.055-.183 5.676-18.494 22.283-36.947 22.308-24.785 52.606-37.352 90.055-37.352 37.181 0 67.326 12.4 89.6 36.848 16.807 18.452 22.688 37.282 22.739 37.451a8 8 0 1 0 15.326-4.6c-.267-.887-6.734-21.961-25.717-43.053-17.512-19.454-49.413-42.646-101.948-42.646s-84.436 23.192-101.946 42.648c-18.983 21.092-25.45 42.166-25.717 43.053a8 8 0 0 0 5.363 9.962z"/><path d="m376 64h24a31.991 31.991 0 0 0 32-32v-24a8 8 0 0 0 -16 0v24a16.061 16.061 0 0 1 -16 16h-24a8 8 0 0 0 0 16z"/><path d="m480 64h24a8 8 0 0 0 .05-16h-24.05a16.054 16.054 0 0 1 -16-16v-24a8 8 0 0 0 -16 0v24a31.991 31.991 0 0 0 32 32z"/><path d="m424 144a8.011 8.011 0 0 0 8-8v-24a31.991 31.991 0 0 0 -32-32h-24a8 8 0 0 0 0 16h24a16.06 16.06 0 0 1 16 16v24a8.011 8.011 0 0 0 8 8z"/><path d="m504 80h-24a31.991 31.991 0 0 0 -32 32v24a8 8 0 0 0 16 0v-24a16.059 16.059 0 0 1 16-16h24a8 8 0 0 0 0-16z"/></g></svg>