<svg height="384pt" viewBox="0 0 384 384" width="384pt" xmlns="http://www.w3.org/2000/svg"><path d="m210.53125 103.167969 14.3125-28.621094 60.617188 30.3125-14.308594 28.621094zm0 0"/><path d="m98.546875 104.84375 60.625-30.308594 14.3125 28.621094-60.625 30.3125zm0 0"/><path d="m192 0c-105.871094 0-192 86.128906-192 192 0 14.816406 1.703125 29.511719 5.054688 43.632812.59375 2.558594 1.28125 5.207032 1.960937 7.765626 2.015625 7.585937 4.640625 15.128906 8.03125 23.144531 1.023437 2.394531 2.128906 4.785156 3.335937 7.359375l.722657 1.503906c.871093 1.832031 1.757812 3.683594 2.695312 5.488281.886719 1.707031 1.816407 3.371094 2.757813 5.058594l1.097656 1.96875c17.183594 29.832031 42.230469 54.582031 73.070312 71.910156 1.832032.992188 3.664063 1.984375 5.578126 2.976563l6.40625 3.128906c1.191406.589844 2.394531 1.167969 2.898437 1.351562 2.015625.917969 4.132813 1.839844 6.085937 2.597657 4.914063 1.984375 9.960938 3.808593 15 5.433593l.96875.296876c2.34375.703124 4.640626 1.382812 6.984376 1.949218 1.296874.371094 2.664062.691406 4.183593 1.042969 2.265625.589844 4.640625 1.167969 6.167969 1.414063 2.535156.570312 5.070312 1.03125 7.089844 1.328124 2.015625.367188 4.132812.648438 5.613281.832032.800781.136718 1.609375.25 2.457031.320312 1.824219.289063 3.601563.472656 5.414063.648438 2.816406.253906 5.625.433594 8.496093.601562 3.257813.15625 6.59375.246094 9.929688.246094s6.671875-.089844 9.984375-.273438c2.816406-.167968 5.625-.335937 8.496094-.597656 1.75-.167968 3.503906-.34375 5.320312-.640625.792969-.054687 1.4375-.152343 1.855469-.222656 2.121094-.273437 4.230469-.554687 5.726562-.832031 2.539063-.378906 5.074219-.847656 6.882813-1.273438 2.261719-.390625 4.628906-.96875 7.140625-1.609375 1.304688-.304687 2.648438-.621093 3.9375-.992187 2.351562-.566406 4.679688-1.261719 7.710938-2.175782 5.210937-1.582031 10.417968-3.472656 15.082031-5.4375 2.121093-.824218 4.230469-1.746093 5.558593-2.371093 1.191407-.476563 2.394532-1.054688 3.058594-1.390625l7.125-3.480469c1.839844-.960937 3.648438-1.933594 6.03125-3.238281 30.195313-16.976563 55.242188-41.722656 72.5625-71.792969l.96875-1.726563c.941406-1.679687 1.871094-3.34375 2.757813-5.058593.9375-1.808594 1.824219-3.664063 2.695312-5.488281l.808594-1.6875c1.113281-2.390626 2.21875-4.78125 3.273437-7.230469 3.367188-7.953125 5.984376-15.503907 8-23.082031.679688-2.558594 1.367188-5.207032 1.945313-7.703126 3.375-14.183593 5.078125-28.878906 5.078125-43.695312 0-105.871094-86.128906-192-192-192zm155.777344 228.367188c-.519532 2.234374-1.121094 4.542968-1.722656 6.792968-1.628907 6.113282-3.773438 12.28125-6.519532 18.777344-.894531 2.09375-1.871094 4.175781-2.75 6.085938l-.769531 1.609374c-.71875 1.503907-1.449219 3.03125-2.214844 4.519532-.730469 1.40625-1.496093 2.769531-2.273437 4.152344l-.910156 1.632812c-14.320313 24.855469-35.203126 45.476562-60.59375 59.75-1.6875.921875-3.390626 1.839844-5.160157 2.761719l-5.832031 2.832031c-.40625.199219-.808594.421875-1.902344.878906-1.496094.679688-3.066406 1.359375-5.015625 2.136719-4.050781 1.703125-8.210937 3.207031-13.035156 4.679687-1.820313.542969-3.589844 1.09375-5.421875 1.519532l-.914062.238281c-.847657.257813-1.742188.457031-2.597657.65625l-1.066406.257813c-1.414063.367187-2.886719.75-5.03125 1.144531-1.78125.390625-3.566406.726562-5.871094 1.078125-1.351562.25-2.761719.433594-4.734375.695312l-2.226562.257813c-1.292969.238281-2.527344.335937-3.710938.449219-2.472656.222656-4.9375.375-7.34375.511718-5.335937.292969-11.023437.292969-16.25 0-2.46875-.144531-4.933594-.296875-7.34375-.511718-1.238281-.121094-2.476562-.21875-3.765625-.457032l-2.199219-.257812s-.042968-.007813-.136718-.023438c-1.5625-.199218-3.128906-.398437-5.144532-.757812-1.785156-.265625-3.566406-.601563-6.082031-1.136719-1.414062-.25-2.886719-.632813-4.300781-1l-1.066406-.257813c-.855469-.199218-1.75-.398437-2.597656-.65625l-.914063-.238281c-1.832031-.425781-3.605469-.976562-5.839844-1.648437-4.351562-1.398438-8.632812-2.953125-13-4.710938-1.558593-.617187-3.128906-1.296875-5.3125-2.273437-.40625-.167969-.816406-.382813-1.75-.839844l-5.304687-2.582031c-1.769532-.921875-3.464844-1.839844-5.367188-2.867188-25.175781-14.160156-46.058594-34.78125-60.25-59.40625l-1.039062-1.863281c-.777344-1.386719-1.542969-2.746094-2.273438-4.152344-.773437-1.488281-1.503906-3.015625-2.214844-4.519531l-.671874-1.417969c-.976563-2.09375-1.945313-4.175781-2.816407-6.214843-2.777343-6.550782-4.917969-12.71875-6.550781-18.832032-.601562-2.238281-1.191406-4.550781-1.738281-6.855468-2.816407-11.761719-4.230469-23.976563-4.230469-36.304688 0-88.222656 71.777344-160 160-160s160 71.777344 160 160c0 12.328125-1.414062 24.542969-4.222656 36.367188zm0 0"/><path d="m192 128c-52.9375 0-96 43.0625-96 96 0 17.585938 4.824219 34.800781 13.910156 49.726562 17.289063 28.546876 48.746094 46.273438 82.089844 46.273438 33.335938 0 64.785156-17.71875 82.070312-46.257812 9.113282-14.957032 13.929688-32.15625 13.929688-49.742188 0-52.9375-43.0625-96-96-96zm0 160c-17.128906 0-33.023438-6.671875-44.824219-18.34375 13.238281-8.816406 28.816407-13.65625 44.902344-13.65625 16.089844 0 31.632813 4.808594 44.816406 13.574219-11.796875 11.714843-27.71875 18.425781-44.894531 18.425781zm61.320312-45.886719c-18.128906-11.707031-39.328124-18.113281-61.242187-18.113281-21.925781 0-43.175781 6.449219-61.367187 18.214844-1.75-5.878906-2.710938-12-2.710938-18.214844 0-35.289062 28.710938-64 64-64s64 28.710938 64 64c0 6.175781-.945312 12.265625-2.679688 18.113281zm0 0"/></svg>