<?xml version="1.0" ?><svg id="Layer_1" style="enable-background:new 0 0 24 24;" version="1.1" viewBox="0 0 24 24" xml:space="preserve" xmlns="http://www.w3.org/2000/svg" xmlns:xlink="http://www.w3.org/1999/xlink"><style type="text/css">
	.st0{fill:#1E232D;}
</style><g><polygon class="st0" points="1,18 1,20 17,20 17,22 1,22 1,24 19,24 19,18  "/><rect class="st0" height="6" width="2" x="21" y="18"/><path class="st0" d="M19,5.7C18.8,2.5,16.2,0,13,0c-1.7,0-3.3,0.7-4.4,1.9C8.4,1.9,8.2,1.9,8,1.9c-3.9,0-7,3.1-7,7   C1,12.8,4.1,16,8,16c2.2,0,3.7-0.8,4.8-1.4c1.1-0.6,1.8-1,2.9-0.6c0.7,0.2,1.2,0.9,1.3,1.8c0,0.1,0,0.2,0,0.2h2c0,0,0-0.3,0-0.4   c-0.2-1.7-1.2-3-2.7-3.5c-2-0.7-3.3,0.1-4.5,0.8C10.8,13.4,9.7,14,8,14c-2.7,0-5-2.3-5-5.1c0-2.5,1.9-4.6,4.4-4.9C7.1,4.6,7,5,7,6   h2c0-1,0.3-1.7,0.8-2.4C10.6,2.6,11.7,2,13,2c1.9,0,3.5,1.3,3.9,3.1C16.6,5,16.3,5,16,5v2c0.6,0,1.1,0.1,1.7,0.3   C19.7,8,21,9.9,21,12v4h2v-4C23,9.3,21.4,6.8,19,5.7z"/></g></svg>