<svg height="512pt" viewBox="0 0 512 512" width="512pt" xmlns="http://www.w3.org/2000/svg"><path d="m256 0c-140.96875 0-256 115.050781-256 256 0 140.96875 115.050781 256 256 256 140.96875 0 256-115.050781 256-256 0-140.96875-115.050781-256-256-256zm0 482c-124.617188 0-226-101.382812-226-226s101.382812-226 226-226 226 101.382812 226 226-101.382812 226-226 226zm0 0"/><path d="m151 196c0 24.8125 20.1875 45 45 45s45-20.1875 45-45-20.1875-45-45-45-45 20.1875-45 45zm45-15c8.269531 0 15 6.730469 15 15s-6.730469 15-15 15-15-6.730469-15-15 6.730469-15 15-15zm0 0"/><path d="m316 151c-24.8125 0-45 20.1875-45 45s20.1875 45 45 45 45-20.1875 45-45-20.1875-45-45-45zm0 60c-8.269531 0-15-6.730469-15-15s6.730469-15 15-15 15 6.730469 15 15-6.730469 15-15 15zm0 0"/><path d="m176.605469 95.394531c-5.855469-5.859375-15.355469-5.859375-21.210938 0l-30 30c-5.859375 5.859375-5.859375 15.355469 0 21.210938 5.855469 5.859375 15.355469 5.859375 21.210938 0l30-30c5.859375-5.855469 5.859375-15.355469 0-21.210938zm0 0"/><path d="m356.605469 95.394531c-5.855469-5.859375-15.355469-5.859375-21.210938 0-5.859375 5.859375-5.859375 15.355469 0 21.210938l30 30c5.855469 5.859375 15.355469 5.859375 21.210938 0 5.859375-5.855469 5.859375-15.351563 0-21.210938zm0 0"/><path d="m166 271c-8.285156 0-15 6.714844-15 15s6.714844 15 15 15c57.898438 0 105 47.101562 105 105 0 8.285156 6.714844 15 15 15s15-6.714844 15-15c0-74.4375-60.5625-135-135-135zm0 0"/></svg>